<?xml version="1.0" encoding="UTF-8" standalone="no"?>
<svg
   xmlns:dc="http://purl.org/dc/elements/1.1/"
   xmlns:cc="http://creativecommons.org/ns#"
   xmlns:rdf="http://www.w3.org/1999/02/22-rdf-syntax-ns#"
   xmlns:svg="http://www.w3.org/2000/svg"
   xmlns="http://www.w3.org/2000/svg"
   xmlns:sodipodi="http://sodipodi.sourceforge.net/DTD/sodipodi-0.dtd"
   xmlns:inkscape="http://www.inkscape.org/namespaces/inkscape"
   width="838.29956"
   height="579.15625"
   viewBox="0 0 838.29954 579.15628"
   id="svg12334"
   version="1.1"
   inkscape:version="0.48.5 r10040"
   sodipodi:docname="mferg_diff_age.svg">
  <metadata
     id="metadata12674">
    <rdf:RDF>
      <cc:Work
         rdf:about="">
        <dc:format>image/svg+xml</dc:format>
        <dc:type
           rdf:resource="http://purl.org/dc/dcmitype/StillImage" />
        <dc:title />
      </cc:Work>
    </rdf:RDF>
  </metadata>
  <defs
     id="defs12672" />
  <sodipodi:namedview
     pagecolor="#ffffff"
     bordercolor="#666666"
     borderopacity="1"
     objecttolerance="10"
     gridtolerance="10"
     guidetolerance="10"
     inkscape:pageopacity="0"
     inkscape:pageshadow="2"
     inkscape:window-width="1366"
     inkscape:window-height="702"
     id="namedview12670"
     showgrid="false"
     fit-margin-top="0"
     fit-margin-left="0"
     fit-margin-right="0"
     fit-margin-bottom="0"
     inkscape:zoom="1.01"
     inkscape:cx="260.01451"
     inkscape:cy="289.57618"
     inkscape:window-x="0"
     inkscape:window-y="27"
     inkscape:window-maximized="1"
     inkscape:current-layer="svg12334" />
  <desc
     id="desc12336">R SVG Plot!</desc>
  <rect
     width="722.70001"
     height="578.15997"
     style="fill:#ffffff"
     id="rect12338"
     x="74.407074"
     y="0.5" />
  <polygon
     points="722.7,578.16 0,578.16 0,0 722.7,0 "
     style="fill:#ffffff;fill-opacity:1;stroke:#ffffff;stroke-width:1;stroke-opacity:1"
     id="polygon12340"
     transform="matrix(1.1583724,0,0,1,0.57915555,0.5)" />
  <polygon
     points="38.16,12.04 618.89,12.04 618.89,526.6 38.16,526.6 "
     style="fill:#ffffff;fill-opacity:1;stroke:#ffffff;stroke-width:1;stroke-opacity:0"
     id="polygon12342"
     transform="translate(74.407078,0.5)" />
  <polyline
     points="38.16 , 461.56 618.89 , 461.56 "
     style="fill:#000000;fill-opacity:0;stroke:#fafafa;stroke-width:1;stroke-opacity:1"
     id="polyline12344"
     transform="translate(74.407078,0.5)" />
  <polyline
     points="38.16 , 344.75 618.89 , 344.75 "
     style="fill:#000000;fill-opacity:0;stroke:#fafafa;stroke-width:1;stroke-opacity:1"
     id="polyline12346"
     transform="translate(74.407078,0.5)" />
  <polyline
     points="38.16 , 227.95 618.89 , 227.95 "
     style="fill:#000000;fill-opacity:0;stroke:#fafafa;stroke-width:1;stroke-opacity:1"
     id="polyline12348"
     transform="translate(74.407078,0.5)" />
  <polyline
     points="38.16 , 111.15 618.89 , 111.15 "
     style="fill:#000000;fill-opacity:0;stroke:#fafafa;stroke-width:1;stroke-opacity:1"
     id="polyline12350"
     transform="translate(74.407078,0.5)" />
  <polyline
     points="122.74 , 526.60 122.74 , 12.04 "
     style="fill:#000000;fill-opacity:0;stroke:#fafafa;stroke-width:1;stroke-opacity:1"
     id="polyline12352"
     transform="translate(74.407078,0.5)" />
  <polyline
     points="283.49 , 526.60 283.49 , 12.04 "
     style="fill:#000000;fill-opacity:0;stroke:#fafafa;stroke-width:1;stroke-opacity:1"
     id="polyline12354"
     transform="translate(74.407078,0.5)" />
  <polyline
     points="444.25 , 526.60 444.25 , 12.04 "
     style="fill:#000000;fill-opacity:0;stroke:#fafafa;stroke-width:1;stroke-opacity:1"
     id="polyline12356"
     transform="translate(74.407078,0.5)" />
  <polyline
     points="605.01 , 526.60 605.01 , 12.04 "
     style="fill:#000000;fill-opacity:0;stroke:#fafafa;stroke-width:1;stroke-opacity:1"
     id="polyline12358"
     transform="translate(74.407078,0.5)" />
  <polyline
     points="38.16 , 519.96 618.89 , 519.96 "
     style="fill:#000000;fill-opacity:0;stroke:#e5e5e5;stroke-width:0;stroke-opacity:1"
     id="polyline12360"
     transform="translate(74.407078,0.5)" />
  <polyline
     points="38.16 , 403.16 618.89 , 403.16 "
     style="fill:#000000;fill-opacity:0;stroke:#e5e5e5;stroke-width:0;stroke-opacity:1"
     id="polyline12362"
     transform="translate(74.407078,0.5)" />
  <polyline
     points="38.16 , 286.35 618.89 , 286.35 "
     style="fill:#000000;fill-opacity:0;stroke:#e5e5e5;stroke-width:0;stroke-opacity:1"
     id="polyline12364"
     transform="translate(74.407078,0.5)" />
  <polyline
     points="38.16 , 169.55 618.89 , 169.55 "
     style="fill:#000000;fill-opacity:0;stroke:#e5e5e5;stroke-width:0;stroke-opacity:1"
     id="polyline12366"
     transform="translate(74.407078,0.5)" />
  <polyline
     points="38.16 , 52.75 618.89 , 52.75 "
     style="fill:#000000;fill-opacity:0;stroke:#e5e5e5;stroke-width:0;stroke-opacity:1"
     id="polyline12368"
     transform="translate(74.407078,0.5)" />
  <polyline
     points="42.36 , 526.60 42.36 , 12.04 "
     style="fill:#000000;fill-opacity:0;stroke:#e5e5e5;stroke-width:0;stroke-opacity:1"
     id="polyline12370"
     transform="translate(74.407078,0.5)" />
  <polyline
     points="203.11 , 526.60 203.11 , 12.04 "
     style="fill:#000000;fill-opacity:0;stroke:#e5e5e5;stroke-width:0;stroke-opacity:1"
     id="polyline12372"
     transform="translate(74.407078,0.5)" />
  <polyline
     points="363.87 , 526.60 363.87 , 12.04 "
     style="fill:#000000;fill-opacity:0;stroke:#e5e5e5;stroke-width:0;stroke-opacity:1"
     id="polyline12374"
     transform="translate(74.407078,0.5)" />
  <polyline
     points="524.63 , 526.60 524.63 , 12.04 "
     style="fill:#000000;fill-opacity:0;stroke:#e5e5e5;stroke-width:0;stroke-opacity:1"
     id="polyline12376"
     transform="translate(74.407078,0.5)" />
  <polygon
     points="231.12,249.03 236.87,258.99 225.37,258.99 "
     style="fill:#d55e00;fill-opacity:1;stroke:#ffffff;stroke-width:1;stroke-opacity:0"
     id="polygon12378"
     transform="translate(74.407078,0.5)" />
  <polygon
     points="281.7,315.68 287.44,325.63 275.95,325.63 "
     style="fill:#d55e00;fill-opacity:1;stroke:#ffffff;stroke-width:1;stroke-opacity:0"
     id="polygon12380"
     transform="translate(74.407078,0.5)" />
  <polygon
     points="194.31,276.92 200.06,286.88 188.56,286.88 "
     style="fill:#d55e00;fill-opacity:1;stroke:#ffffff;stroke-width:1;stroke-opacity:0"
     id="polygon12382"
     transform="translate(74.407078,0.5)" />
  <polygon
     points="265.54,288.74 271.29,298.69 259.79,298.69 "
     style="fill:#d55e00;fill-opacity:1;stroke:#ffffff;stroke-width:1;stroke-opacity:0"
     id="polygon12384"
     transform="translate(74.407078,0.5)" />
  <circle
     cx="354.69"
     cy="264.48999"
     r="6.4000001"
     style="fill:#56b4e9;fill-opacity:1;stroke:#ffffff;stroke-width:1;stroke-opacity:0"
     id="circle12386"
     sodipodi:cx="354.69"
     sodipodi:cy="264.48999"
     sodipodi:rx="6.4000001"
     sodipodi:ry="6.4000001"
     transform="translate(74.407078,0.5)" />
  <polygon
     points="115.57,205.44 121.32,215.39 109.83,215.39 "
     style="fill:#d55e00;fill-opacity:1;stroke:#ffffff;stroke-width:1;stroke-opacity:0"
     id="polygon12388"
     transform="translate(74.407078,0.5)" />
  <circle
     cx="385.41"
     cy="440.64001"
     r="6.4000001"
     style="fill:#56b4e9;fill-opacity:1;stroke:#ffffff;stroke-width:1;stroke-opacity:0"
     id="circle12390"
     sodipodi:cx="385.41"
     sodipodi:cy="440.64001"
     sodipodi:rx="6.4000001"
     sodipodi:ry="6.4000001"
     transform="translate(74.407078,0.5)" />
  <polygon
     points="304.2,386.92 309.95,396.88 298.46,396.88 "
     style="fill:#d55e00;fill-opacity:1;stroke:#ffffff;stroke-width:1;stroke-opacity:0"
     id="polygon12392"
     transform="translate(74.407078,0.5)" />
  <polygon
     points="200.75,388.94 206.5,398.9 195.01,398.9 "
     style="fill:#d55e00;fill-opacity:1;stroke:#ffffff;stroke-width:1;stroke-opacity:0"
     id="polygon12394"
     transform="translate(74.407078,0.5)" />
  <circle
     cx="295.20001"
     cy="297.63"
     r="6.4000001"
     style="fill:#56b4e9;fill-opacity:1;stroke:#ffffff;stroke-width:1;stroke-opacity:0"
     id="circle12396"
     sodipodi:cx="295.20001"
     sodipodi:cy="297.63"
     sodipodi:rx="6.4000001"
     sodipodi:ry="6.4000001"
     transform="translate(74.407078,0.5)" />
  <polygon
     points="288.76,265.83 294.51,275.78 283.01,275.78 "
     style="fill:#d55e00;fill-opacity:1;stroke:#ffffff;stroke-width:1;stroke-opacity:0"
     id="polygon12398"
     transform="translate(74.407078,0.5)" />
  <polygon
     points="430.52,213.97 436.26,223.93 424.77,223.93 "
     style="fill:#d55e00;fill-opacity:1;stroke:#ffffff;stroke-width:1;stroke-opacity:0"
     id="polygon12400"
     transform="translate(74.407078,0.5)" />
  <polygon
     points="111.78,315.71 117.53,325.67 106.03,325.67 "
     style="fill:#d55e00;fill-opacity:1;stroke:#ffffff;stroke-width:1;stroke-opacity:0"
     id="polygon12402"
     transform="translate(74.407078,0.5)" />
  <circle
     cx="440.14001"
     cy="306.23999"
     r="6.4000001"
     style="fill:#56b4e9;fill-opacity:1;stroke:#ffffff;stroke-width:1;stroke-opacity:0"
     id="circle12404"
     sodipodi:cx="440.14001"
     sodipodi:cy="306.23999"
     sodipodi:rx="6.4000001"
     sodipodi:ry="6.4000001"
     transform="translate(74.407078,0.5)" />
  <polygon
     points="171.01,376.22 176.75,386.18 165.26,386.18 "
     style="fill:#d55e00;fill-opacity:1;stroke:#ffffff;stroke-width:1;stroke-opacity:0"
     id="polygon12406"
     transform="translate(74.407078,0.5)" />
  <polygon
     points="212.49,231.26 218.24,241.22 206.75,241.22 "
     style="fill:#d55e00;fill-opacity:1;stroke:#ffffff;stroke-width:1;stroke-opacity:0"
     id="polygon12408"
     transform="translate(74.407078,0.5)" />
  <polygon
     points="119.28,244.97 125.03,254.93 113.53,254.93 "
     style="fill:#d55e00;fill-opacity:1;stroke:#ffffff;stroke-width:1;stroke-opacity:0"
     id="polygon12410"
     transform="translate(74.407078,0.5)" />
  <circle
     cx="181.78"
     cy="283.31"
     r="6.4000001"
     style="fill:#56b4e9;fill-opacity:1;stroke:#ffffff;stroke-width:1;stroke-opacity:0"
     id="circle12412"
     sodipodi:cx="181.78"
     sodipodi:cy="283.31"
     sodipodi:rx="6.4000001"
     sodipodi:ry="6.4000001"
     transform="translate(74.407078,0.5)" />
  <circle
     cx="220.17"
     cy="316.07001"
     r="6.4000001"
     style="fill:#56b4e9;fill-opacity:1;stroke:#ffffff;stroke-width:1;stroke-opacity:0"
     id="circle12414"
     sodipodi:cx="220.17"
     sodipodi:cy="316.07001"
     sodipodi:rx="6.4000001"
     sodipodi:ry="6.4000001"
     transform="translate(74.407078,0.5)" />
  <circle
     cx="114.52"
     cy="336.72"
     r="6.4000001"
     style="fill:#56b4e9;fill-opacity:1;stroke:#ffffff;stroke-width:1;stroke-opacity:0"
     id="circle12416"
     sodipodi:cx="114.52"
     sodipodi:cy="336.72"
     sodipodi:rx="6.4000001"
     sodipodi:ry="6.4000001"
     transform="translate(74.407078,0.5)" />
  <polygon
     points="258.3,286.98 264.05,296.94 252.56,296.94 "
     style="fill:#d55e00;fill-opacity:1;stroke:#ffffff;stroke-width:1;stroke-opacity:0"
     id="polygon12418"
     transform="translate(74.407078,0.5)" />
  <polygon
     points="239.86,265.25 245.6,275.21 234.11,275.21 "
     style="fill:#d55e00;fill-opacity:1;stroke:#ffffff;stroke-width:1;stroke-opacity:0"
     id="polygon12420"
     transform="translate(74.407078,0.5)" />
  <circle
     cx="299.44"
     cy="308.42001"
     r="6.4000001"
     style="fill:#56b4e9;fill-opacity:1;stroke:#ffffff;stroke-width:1;stroke-opacity:0"
     id="circle12422"
     sodipodi:cx="299.44"
     sodipodi:cy="308.42001"
     sodipodi:rx="6.4000001"
     sodipodi:ry="6.4000001"
     transform="translate(74.407078,0.5)" />
  <circle
     cx="112.4"
     cy="299.89001"
     r="6.4000001"
     style="fill:#56b4e9;fill-opacity:1;stroke:#ffffff;stroke-width:1;stroke-opacity:0"
     id="circle12424"
     sodipodi:cx="112.4"
     sodipodi:cy="299.89001"
     sodipodi:rx="6.4000001"
     sodipodi:ry="6.4000001"
     transform="translate(74.407078,0.5)" />
  <circle
     cx="161.21001"
     cy="316.62"
     r="6.4000001"
     style="fill:#56b4e9;fill-opacity:1;stroke:#ffffff;stroke-width:1;stroke-opacity:0"
     id="circle12426"
     sodipodi:cx="161.21001"
     sodipodi:cy="316.62"
     sodipodi:rx="6.4000001"
     sodipodi:ry="6.4000001"
     transform="translate(74.407078,0.5)" />
  <polygon
     points="287.87,293.29 293.62,303.24 282.13,303.24 "
     style="fill:#d55e00;fill-opacity:1;stroke:#ffffff;stroke-width:1;stroke-opacity:0"
     id="polygon12428"
     transform="translate(74.407078,0.5)" />
  <polygon
     points="273.58,336.9 279.32,346.85 267.83,346.85 "
     style="fill:#d55e00;fill-opacity:1;stroke:#ffffff;stroke-width:1;stroke-opacity:0"
     id="polygon12430"
     transform="translate(74.407078,0.5)" />
  <polygon
     points="218.67,303.7 224.42,313.65 212.92,313.65 "
     style="fill:#d55e00;fill-opacity:1;stroke:#ffffff;stroke-width:1;stroke-opacity:0"
     id="polygon12432"
     transform="translate(74.407078,0.5)" />
  <circle
     cx="180.98"
     cy="276.17999"
     r="6.4000001"
     style="fill:#56b4e9;fill-opacity:1;stroke:#ffffff;stroke-width:1;stroke-opacity:0"
     id="circle12434"
     sodipodi:cx="180.98"
     sodipodi:cy="276.17999"
     sodipodi:rx="6.4000001"
     sodipodi:ry="6.4000001"
     transform="translate(74.407078,0.5)" />
  <circle
     cx="254.50999"
     cy="273.82999"
     r="6.4000001"
     style="fill:#56b4e9;fill-opacity:1;stroke:#ffffff;stroke-width:1;stroke-opacity:0"
     id="circle12436"
     sodipodi:cx="254.50999"
     sodipodi:cy="273.82999"
     sodipodi:rx="6.4000001"
     sodipodi:ry="6.4000001"
     transform="translate(74.407078,0.5)" />
  <polygon
     points="257.33,178.81 263.08,188.76 251.59,188.76 "
     style="fill:#d55e00;fill-opacity:1;stroke:#ffffff;stroke-width:1;stroke-opacity:0"
     id="polygon12438"
     transform="translate(74.407078,0.5)" />
  <polygon
     points="301.64,216.53 307.39,226.48 295.9,226.48 "
     style="fill:#d55e00;fill-opacity:1;stroke:#ffffff;stroke-width:1;stroke-opacity:0"
     id="polygon12440"
     transform="translate(74.407078,0.5)" />
  <polygon
     points="266.6,257.16 272.35,267.11 260.85,267.11 "
     style="fill:#d55e00;fill-opacity:1;stroke:#ffffff;stroke-width:1;stroke-opacity:0"
     id="polygon12442"
     transform="translate(74.407078,0.5)" />
  <polygon
     points="192.63,224.8 198.38,234.76 186.88,234.76 "
     style="fill:#d55e00;fill-opacity:1;stroke:#ffffff;stroke-width:1;stroke-opacity:0"
     id="polygon12444"
     transform="translate(74.407078,0.5)" />
  <polygon
     points="202.96,297.19 208.71,307.14 197.21,307.14 "
     style="fill:#d55e00;fill-opacity:1;stroke:#ffffff;stroke-width:1;stroke-opacity:0"
     id="polygon12446"
     transform="translate(74.407078,0.5)" />
  <polygon
     points="223.79,306.68 229.54,316.64 218.04,316.64 "
     style="fill:#d55e00;fill-opacity:1;stroke:#ffffff;stroke-width:1;stroke-opacity:0"
     id="polygon12448"
     transform="translate(74.407078,0.5)" />
  <polygon
     points="281.7,298.72 287.44,308.67 275.95,308.67 "
     style="fill:#d55e00;fill-opacity:1;stroke:#ffffff;stroke-width:1;stroke-opacity:0"
     id="polygon12450"
     transform="translate(74.407078,0.5)" />
  <polygon
     points="286.02,285.61 291.77,295.57 280.27,295.57 "
     style="fill:#d55e00;fill-opacity:1;stroke:#ffffff;stroke-width:1;stroke-opacity:0"
     id="polygon12452"
     transform="translate(74.407078,0.5)" />
  <polygon
     points="234.91,302.23 240.66,312.19 229.17,312.19 "
     style="fill:#d55e00;fill-opacity:1;stroke:#ffffff;stroke-width:1;stroke-opacity:0"
     id="polygon12454"
     transform="translate(74.407078,0.5)" />
  <circle
     cx="200.58"
     cy="372.32999"
     r="6.4000001"
     style="fill:#56b4e9;fill-opacity:1;stroke:#ffffff;stroke-width:1;stroke-opacity:0"
     id="circle12456"
     sodipodi:cx="200.58"
     sodipodi:cy="372.32999"
     sodipodi:rx="6.4000001"
     sodipodi:ry="6.4000001"
     transform="translate(74.407078,0.5)" />
  <circle
     cx="314.17999"
     cy="346.95001"
     r="6.4000001"
     style="fill:#56b4e9;fill-opacity:1;stroke:#ffffff;stroke-width:1;stroke-opacity:0"
     id="circle12458"
     sodipodi:cx="314.17999"
     sodipodi:cy="346.95001"
     sodipodi:rx="6.4000001"
     sodipodi:ry="6.4000001"
     transform="translate(74.407078,0.5)" />
  <polygon
     points="213.46,336.91 219.21,346.87 207.72,346.87 "
     style="fill:#d55e00;fill-opacity:1;stroke:#ffffff;stroke-width:1;stroke-opacity:0"
     id="polygon12460"
     transform="translate(74.407078,0.5)" />
  <circle
     cx="248.07001"
     cy="260.23001"
     r="6.4000001"
     style="fill:#56b4e9;fill-opacity:1;stroke:#ffffff;stroke-width:1;stroke-opacity:0"
     id="circle12462"
     sodipodi:cx="248.07001"
     sodipodi:cy="260.23001"
     sodipodi:rx="6.4000001"
     sodipodi:ry="6.4000001"
     transform="translate(74.407078,0.5)" />
  <circle
     cx="238.36"
     cy="328.57999"
     r="6.4000001"
     style="fill:#56b4e9;fill-opacity:1;stroke:#ffffff;stroke-width:1;stroke-opacity:0"
     id="circle12464"
     sodipodi:cx="238.36"
     sodipodi:cy="328.57999"
     sodipodi:rx="6.4000001"
     sodipodi:ry="6.4000001"
     transform="translate(74.407078,0.5)" />
  <circle
     cx="516.48999"
     cy="230.94"
     r="6.4000001"
     style="fill:#56b4e9;fill-opacity:1;stroke:#ffffff;stroke-width:1;stroke-opacity:0"
     id="circle12466"
     sodipodi:cx="516.48999"
     sodipodi:cy="230.94"
     sodipodi:rx="6.4000001"
     sodipodi:ry="6.4000001"
     transform="translate(74.407078,0.5)" />
  <circle
     cx="592.48999"
     cy="261.60999"
     r="6.4000001"
     style="fill:#56b4e9;fill-opacity:1;stroke:#ffffff;stroke-width:1;stroke-opacity:0"
     id="circle12468"
     sodipodi:cx="592.48999"
     sodipodi:cy="261.60999"
     sodipodi:rx="6.4000001"
     sodipodi:ry="6.4000001"
     transform="translate(74.407078,0.5)" />
  <polygon
     points="259.36,318.89 265.11,328.84 253.62,328.84 "
     style="fill:#d55e00;fill-opacity:1;stroke:#ffffff;stroke-width:1;stroke-opacity:0"
     id="polygon12470"
     transform="translate(74.407078,0.5)" />
  <circle
     cx="382.23001"
     cy="503.20999"
     r="6.4000001"
     style="fill:#56b4e9;fill-opacity:1;stroke:#ffffff;stroke-width:1;stroke-opacity:0"
     id="circle12472"
     sodipodi:cx="382.23001"
     sodipodi:cy="503.20999"
     sodipodi:rx="6.4000001"
     sodipodi:ry="6.4000001"
     transform="translate(74.407078,0.5)" />
  <circle
     cx="261.75"
     cy="239.77"
     r="6.4000001"
     style="fill:#56b4e9;fill-opacity:1;stroke:#ffffff;stroke-width:1;stroke-opacity:0"
     id="circle12474"
     sodipodi:cx="261.75"
     sodipodi:cy="239.77"
     sodipodi:rx="6.4000001"
     sodipodi:ry="6.4000001"
     transform="translate(74.407078,0.5)" />
  <circle
     cx="458.67001"
     cy="348.29001"
     r="6.4000001"
     style="fill:#56b4e9;fill-opacity:1;stroke:#ffffff;stroke-width:1;stroke-opacity:0"
     id="circle12476"
     sodipodi:cx="458.67001"
     sodipodi:cy="348.29001"
     sodipodi:rx="6.4000001"
     sodipodi:ry="6.4000001"
     transform="translate(74.407078,0.5)" />
  <circle
     cx="200.49001"
     cy="373.01001"
     r="6.4000001"
     style="fill:#56b4e9;fill-opacity:1;stroke:#ffffff;stroke-width:1;stroke-opacity:0"
     id="circle12478"
     sodipodi:cx="200.49001"
     sodipodi:cy="373.01001"
     sodipodi:rx="6.4000001"
     sodipodi:ry="6.4000001"
     transform="translate(74.407078,0.5)" />
  <circle
     cx="225.73"
     cy="393.16"
     r="6.4000001"
     style="fill:#56b4e9;fill-opacity:1;stroke:#ffffff;stroke-width:1;stroke-opacity:0"
     id="circle12480"
     sodipodi:cx="225.73"
     sodipodi:cy="393.16"
     sodipodi:rx="6.4000001"
     sodipodi:ry="6.4000001"
     transform="translate(74.407078,0.5)" />
  <circle
     cx="166.50999"
     cy="293.91"
     r="6.4000001"
     style="fill:#56b4e9;fill-opacity:1;stroke:#ffffff;stroke-width:1;stroke-opacity:0"
     id="circle12482"
     sodipodi:cx="166.50999"
     sodipodi:cy="293.91"
     sodipodi:rx="6.4000001"
     sodipodi:ry="6.4000001"
     transform="translate(74.407078,0.5)" />
  <circle
     cx="177.98"
     cy="241.38"
     r="6.4000001"
     style="fill:#56b4e9;fill-opacity:1;stroke:#ffffff;stroke-width:1;stroke-opacity:0"
     id="circle12484"
     sodipodi:cx="177.98"
     sodipodi:cy="241.38"
     sodipodi:rx="6.4000001"
     sodipodi:ry="6.4000001"
     transform="translate(74.407078,0.5)" />
  <circle
     cx="455.57999"
     cy="236.47"
     r="6.4000001"
     style="fill:#56b4e9;fill-opacity:1;stroke:#ffffff;stroke-width:1;stroke-opacity:0"
     id="circle12486"
     sodipodi:cx="455.57999"
     sodipodi:cy="236.47"
     sodipodi:rx="6.4000001"
     sodipodi:ry="6.4000001"
     transform="translate(74.407078,0.5)" />
  <circle
     cx="533"
     cy="165.72"
     r="6.4000001"
     style="fill:#56b4e9;fill-opacity:1;stroke:#ffffff;stroke-width:1;stroke-opacity:0"
     id="circle12488"
     sodipodi:cx="533"
     sodipodi:cy="165.72"
     sodipodi:rx="6.4000001"
     sodipodi:ry="6.4000001"
     transform="translate(74.407078,0.5)" />
  <circle
     cx="242.77"
     cy="285.26001"
     r="6.4000001"
     style="fill:#56b4e9;fill-opacity:1;stroke:#ffffff;stroke-width:1;stroke-opacity:0"
     id="circle12490"
     sodipodi:cx="242.77"
     sodipodi:cy="285.26001"
     sodipodi:rx="6.4000001"
     sodipodi:ry="6.4000001"
     transform="translate(74.407078,0.5)" />
  <circle
     cx="463.79001"
     cy="232.97"
     r="6.4000001"
     style="fill:#56b4e9;fill-opacity:1;stroke:#ffffff;stroke-width:1;stroke-opacity:0"
     id="circle12492"
     sodipodi:cx="463.79001"
     sodipodi:cy="232.97"
     sodipodi:rx="6.4000001"
     sodipodi:ry="6.4000001"
     transform="translate(74.407078,0.5)" />
  <circle
     cx="64.550003"
     cy="296"
     r="6.4000001"
     style="fill:#56b4e9;fill-opacity:1;stroke:#ffffff;stroke-width:1;stroke-opacity:0"
     id="circle12494"
     sodipodi:cx="64.550003"
     sodipodi:cy="296"
     sodipodi:rx="6.4000001"
     sodipodi:ry="6.4000001"
     transform="translate(74.407078,0.5)" />
  <circle
     cx="148.5"
     cy="270.14001"
     r="6.4000001"
     style="fill:#56b4e9;fill-opacity:1;stroke:#ffffff;stroke-width:1;stroke-opacity:0"
     id="circle12496"
     sodipodi:cx="148.5"
     sodipodi:cy="270.14001"
     sodipodi:rx="6.4000001"
     sodipodi:ry="6.4000001"
     transform="translate(74.407078,0.5)" />
  <circle
     cx="247.27"
     cy="35.43"
     r="6.4000001"
     style="fill:#56b4e9;fill-opacity:1;stroke:#ffffff;stroke-width:1;stroke-opacity:0"
     id="circle12498"
     sodipodi:cx="247.27"
     sodipodi:cy="35.43"
     sodipodi:rx="6.4000001"
     sodipodi:ry="6.4000001"
     transform="translate(74.407078,0.5)" />
  <circle
     cx="196.96001"
     cy="318.03"
     r="6.4000001"
     style="fill:#56b4e9;fill-opacity:1;stroke:#ffffff;stroke-width:1;stroke-opacity:0"
     id="circle12500"
     sodipodi:cx="196.96001"
     sodipodi:cy="318.03"
     sodipodi:rx="6.4000001"
     sodipodi:ry="6.4000001"
     transform="translate(74.407078,0.5)" />
  <circle
     cx="320.70999"
     cy="276.97"
     r="6.4000001"
     style="fill:#56b4e9;fill-opacity:1;stroke:#ffffff;stroke-width:1;stroke-opacity:0"
     id="circle12502"
     sodipodi:cx="320.70999"
     sodipodi:cy="276.97"
     sodipodi:rx="6.4000001"
     sodipodi:ry="6.4000001"
     transform="translate(74.407078,0.5)" />
  <circle
     cx="118.58"
     cy="79.150002"
     r="6.4000001"
     style="fill:#56b4e9;fill-opacity:1;stroke:#ffffff;stroke-width:1;stroke-opacity:0"
     id="circle12504"
     sodipodi:cx="118.58"
     sodipodi:cy="79.150002"
     sodipodi:rx="6.4000001"
     sodipodi:ry="6.4000001"
     transform="translate(74.407078,0.5)" />
  <circle
     cx="369.42999"
     cy="245.55"
     r="6.4000001"
     style="fill:#56b4e9;fill-opacity:1;stroke:#ffffff;stroke-width:1;stroke-opacity:0"
     id="circle12506"
     sodipodi:cx="369.42999"
     sodipodi:cy="245.55"
     sodipodi:rx="6.4000001"
     sodipodi:ry="6.4000001"
     transform="translate(74.407078,0.5)" />
  <circle
     cx="232.62"
     cy="80.349998"
     r="6.4000001"
     style="fill:#56b4e9;fill-opacity:1;stroke:#ffffff;stroke-width:1;stroke-opacity:0"
     id="circle12508"
     sodipodi:cx="232.62"
     sodipodi:cy="80.349998"
     sodipodi:rx="6.4000001"
     sodipodi:ry="6.4000001"
     transform="translate(74.407078,0.5)" />
  <circle
     cx="187.42"
     cy="287.23001"
     r="6.4000001"
     style="fill:#56b4e9;fill-opacity:1;stroke:#ffffff;stroke-width:1;stroke-opacity:0"
     id="circle12510"
     sodipodi:cx="187.42"
     sodipodi:cy="287.23001"
     sodipodi:rx="6.4000001"
     sodipodi:ry="6.4000001"
     transform="translate(74.407078,0.5)" />
  <polygon
     points="252.83,302.36 258.58,312.31 247.08,312.31 "
     style="fill:#d55e00;fill-opacity:1;stroke:#ffffff;stroke-width:1;stroke-opacity:0"
     id="polygon12512"
     transform="translate(74.407078,0.5)" />
  <circle
     cx="220.53"
     cy="281.64001"
     r="6.4000001"
     style="fill:#56b4e9;fill-opacity:1;stroke:#ffffff;stroke-width:1;stroke-opacity:0"
     id="circle12514"
     sodipodi:cx="220.53"
     sodipodi:cy="281.64001"
     sodipodi:rx="6.4000001"
     sodipodi:ry="6.4000001"
     transform="translate(74.407078,0.5)" />
  <polygon
     points="385.85,208.44 391.6,218.4 380.1,218.4 "
     style="fill:#d55e00;fill-opacity:1;stroke:#ffffff;stroke-width:1;stroke-opacity:0"
     id="polygon12516"
     transform="translate(74.407078,0.5)" />
  <circle
     cx="213.28999"
     cy="292.60001"
     r="6.4000001"
     style="fill:#56b4e9;fill-opacity:1;stroke:#ffffff;stroke-width:1;stroke-opacity:0"
     id="circle12518"
     sodipodi:cx="213.28999"
     sodipodi:cy="292.60001"
     sodipodi:rx="6.4000001"
     sodipodi:ry="6.4000001"
     transform="translate(74.407078,0.5)" />
  <circle
     cx="259.19"
     cy="306.92001"
     r="6.4000001"
     style="fill:#56b4e9;fill-opacity:1;stroke:#ffffff;stroke-width:1;stroke-opacity:0"
     id="circle12520"
     sodipodi:cx="259.19"
     sodipodi:cy="306.92001"
     sodipodi:rx="6.4000001"
     sodipodi:ry="6.4000001"
     transform="translate(74.407078,0.5)" />
  <circle
     cx="127.93"
     cy="328.54001"
     r="6.4000001"
     style="fill:#56b4e9;fill-opacity:1;stroke:#ffffff;stroke-width:1;stroke-opacity:0"
     id="circle12522"
     sodipodi:cx="127.93"
     sodipodi:cy="328.54001"
     sodipodi:rx="6.4000001"
     sodipodi:ry="6.4000001"
     transform="translate(74.407078,0.5)" />
  <polygon
     points="341.01,272.45 346.76,282.41 335.26,282.41 "
     style="fill:#d55e00;fill-opacity:1;stroke:#ffffff;stroke-width:1;stroke-opacity:0"
     id="polygon12524"
     transform="translate(74.407078,0.5)" />
  <circle
     cx="226.88"
     cy="275.01999"
     r="6.4000001"
     style="fill:#56b4e9;fill-opacity:1;stroke:#ffffff;stroke-width:1;stroke-opacity:0"
     id="circle12526"
     sodipodi:cx="226.88"
     sodipodi:cy="275.01999"
     sodipodi:rx="6.4000001"
     sodipodi:ry="6.4000001"
     transform="translate(74.407078,0.5)" />
  <polygon
     points="239.06,274.18 244.81,284.14 233.31,284.14 "
     style="fill:#d55e00;fill-opacity:1;stroke:#ffffff;stroke-width:1;stroke-opacity:0"
     id="polygon12528"
     transform="translate(74.407078,0.5)" />
  <circle
     cx="311.44"
     cy="339.91"
     r="6.4000001"
     style="fill:#56b4e9;fill-opacity:1;stroke:#ffffff;stroke-width:1;stroke-opacity:0"
     id="circle12530"
     sodipodi:cx="311.44"
     sodipodi:cy="339.91"
     sodipodi:rx="6.4000001"
     sodipodi:ry="6.4000001"
     transform="translate(74.407078,0.5)" />
  <polygon
     points="231.91,238.71 237.66,248.67 226.16,248.67 "
     style="fill:#d55e00;fill-opacity:1;stroke:#ffffff;stroke-width:1;stroke-opacity:0"
     id="polygon12532"
     transform="translate(74.407078,0.5)" />
  <polygon
     points="347.72,391.95 353.47,401.9 341.97,401.9 "
     style="fill:#d55e00;fill-opacity:1;stroke:#ffffff;stroke-width:1;stroke-opacity:0"
     id="polygon12534"
     transform="translate(74.407078,0.5)" />
  <circle
     cx="276.66"
     cy="363.53"
     r="6.4000001"
     style="fill:#56b4e9;fill-opacity:1;stroke:#ffffff;stroke-width:1;stroke-opacity:0"
     id="circle12536"
     sodipodi:cx="276.66"
     sodipodi:cy="363.53"
     sodipodi:rx="6.4000001"
     sodipodi:ry="6.4000001"
     transform="translate(74.407078,0.5)" />
  <circle
     cx="258.48001"
     cy="406.73999"
     r="6.4000001"
     style="fill:#56b4e9;fill-opacity:1;stroke:#ffffff;stroke-width:1;stroke-opacity:0"
     id="circle12538"
     sodipodi:cx="258.48001"
     sodipodi:cy="406.73999"
     sodipodi:rx="6.4000001"
     sodipodi:ry="6.4000001"
     transform="translate(74.407078,0.5)" />
  <polygon
     points="432.02,343.81 437.77,353.76 426.27,353.76 "
     style="fill:#d55e00;fill-opacity:1;stroke:#ffffff;stroke-width:1;stroke-opacity:0"
     id="polygon12540"
     transform="translate(74.407078,0.5)" />
  <polygon
     points="243.12,186.57 248.87,196.53 237.37,196.53 "
     style="fill:#d55e00;fill-opacity:1;stroke:#ffffff;stroke-width:1;stroke-opacity:0"
     id="polygon12542"
     transform="translate(74.407078,0.5)" />
  <circle
     cx="206.23"
     cy="252.00999"
     r="6.4000001"
     style="fill:#56b4e9;fill-opacity:1;stroke:#ffffff;stroke-width:1;stroke-opacity:0"
     id="circle12544"
     sodipodi:cx="206.23"
     sodipodi:cy="252.00999"
     sodipodi:rx="6.4000001"
     sodipodi:ry="6.4000001"
     transform="translate(74.407078,0.5)" />
  <circle
     cx="233.85001"
     cy="283.70001"
     r="6.4000001"
     style="fill:#56b4e9;fill-opacity:1;stroke:#ffffff;stroke-width:1;stroke-opacity:0"
     id="circle12546"
     sodipodi:cx="233.85001"
     sodipodi:cy="283.70001"
     sodipodi:rx="6.4000001"
     sodipodi:ry="6.4000001"
     transform="translate(74.407078,0.5)" />
  <polygon
     points="210.82,326.26 216.56,336.21 205.07,336.21 "
     style="fill:#d55e00;fill-opacity:1;stroke:#ffffff;stroke-width:1;stroke-opacity:0"
     id="polygon12548"
     transform="translate(74.407078,0.5)" />
  <circle
     cx="181.78"
     cy="289"
     r="6.4000001"
     style="fill:#56b4e9;fill-opacity:1;stroke:#ffffff;stroke-width:1;stroke-opacity:0"
     id="circle12550"
     sodipodi:cx="181.78"
     sodipodi:cy="289"
     sodipodi:rx="6.4000001"
     sodipodi:ry="6.4000001"
     transform="translate(74.407078,0.5)" />
  <polygon
     points="303.32,261.72 309.07,271.67 297.57,271.67 "
     style="fill:#d55e00;fill-opacity:1;stroke:#ffffff;stroke-width:1;stroke-opacity:0"
     id="polygon12552"
     transform="translate(74.407078,0.5)" />
  <polygon
     points="289.82,464.07 295.56,474.02 284.07,474.02 "
     style="fill:#d55e00;fill-opacity:1;stroke:#ffffff;stroke-width:1;stroke-opacity:0"
     id="polygon12554"
     transform="translate(74.407078,0.5)" />
  <circle
     cx="308.09"
     cy="303.26001"
     r="6.4000001"
     style="fill:#56b4e9;fill-opacity:1;stroke:#ffffff;stroke-width:1;stroke-opacity:0"
     id="circle12556"
     sodipodi:cx="308.09"
     sodipodi:cy="303.26001"
     sodipodi:rx="6.4000001"
     sodipodi:ry="6.4000001"
     transform="translate(74.407078,0.5)" />
  <circle
     cx="256.45001"
     cy="185.45"
     r="6.4000001"
     style="fill:#56b4e9;fill-opacity:1;stroke:#ffffff;stroke-width:1;stroke-opacity:0"
     id="circle12558"
     sodipodi:cx="256.45001"
     sodipodi:cy="185.45"
     sodipodi:rx="6.4000001"
     sodipodi:ry="6.4000001"
     transform="translate(74.407078,0.5)" />
  <circle
     cx="296.60999"
     cy="195.45"
     r="6.4000001"
     style="fill:#56b4e9;fill-opacity:1;stroke:#ffffff;stroke-width:1;stroke-opacity:0"
     id="circle12560"
     sodipodi:cx="296.60999"
     sodipodi:cy="195.45"
     sodipodi:rx="6.4000001"
     sodipodi:ry="6.4000001"
     transform="translate(74.407078,0.5)" />
  <circle
     cx="120.43"
     cy="223.77"
     r="6.4000001"
     style="fill:#56b4e9;fill-opacity:1;stroke:#ffffff;stroke-width:1;stroke-opacity:0"
     id="circle12562"
     sodipodi:cx="120.43"
     sodipodi:cy="223.77"
     sodipodi:rx="6.4000001"
     sodipodi:ry="6.4000001"
     transform="translate(74.407078,0.5)" />
  <circle
     cx="339.16"
     cy="276.78"
     r="6.4000001"
     style="fill:#56b4e9;fill-opacity:1;stroke:#ffffff;stroke-width:1;stroke-opacity:0"
     id="circle12564"
     sodipodi:cx="339.16"
     sodipodi:cy="276.78"
     sodipodi:rx="6.4000001"
     sodipodi:ry="6.4000001"
     transform="translate(74.407078,0.5)" />
  <circle
     cx="330.85999"
     cy="317.67001"
     r="6.4000001"
     style="fill:#56b4e9;fill-opacity:1;stroke:#ffffff;stroke-width:1;stroke-opacity:0"
     id="circle12566"
     sodipodi:cx="330.85999"
     sodipodi:cy="317.67001"
     sodipodi:rx="6.4000001"
     sodipodi:ry="6.4000001"
     transform="translate(74.407078,0.5)" />
  <circle
     cx="245.06"
     cy="342.07001"
     r="6.4000001"
     style="fill:#56b4e9;fill-opacity:1;stroke:#ffffff;stroke-width:1;stroke-opacity:0"
     id="circle12568"
     sodipodi:cx="245.06"
     sodipodi:cy="342.07001"
     sodipodi:rx="6.4000001"
     sodipodi:ry="6.4000001"
     transform="translate(74.407078,0.5)" />
  <circle
     cx="197.75"
     cy="182.05"
     r="6.4000001"
     style="fill:#56b4e9;fill-opacity:1;stroke:#ffffff;stroke-width:1;stroke-opacity:0"
     id="circle12570"
     sodipodi:cx="197.75"
     sodipodi:cy="182.05"
     sodipodi:rx="6.4000001"
     sodipodi:ry="6.4000001"
     transform="translate(74.407078,0.5)" />
  <polygon
     points="349.04,262.6 354.79,272.55 343.3,272.55 "
     style="fill:#d55e00;fill-opacity:1;stroke:#ffffff;stroke-width:1;stroke-opacity:0"
     id="polygon12572"
     transform="translate(74.407078,0.5)" />
  <circle
     cx="405.54001"
     cy="202.16"
     r="6.4000001"
     style="fill:#56b4e9;fill-opacity:1;stroke:#ffffff;stroke-width:1;stroke-opacity:0"
     id="circle12574"
     sodipodi:cx="405.54001"
     sodipodi:cy="202.16"
     sodipodi:rx="6.4000001"
     sodipodi:ry="6.4000001"
     transform="translate(74.407078,0.5)" />
  <polygon
     points="423.46,490.88 429.2,500.84 417.71,500.84 "
     style="fill:#d55e00;fill-opacity:1;stroke:#ffffff;stroke-width:1;stroke-opacity:0"
     id="polygon12576"
     transform="translate(74.407078,0.5)" />
  <circle
     cx="370.94"
     cy="336.17001"
     r="6.4000001"
     style="fill:#56b4e9;fill-opacity:1;stroke:#ffffff;stroke-width:1;stroke-opacity:0"
     id="circle12578"
     sodipodi:cx="370.94"
     sodipodi:cy="336.17001"
     sodipodi:rx="6.4000001"
     sodipodi:ry="6.4000001"
     transform="translate(74.407078,0.5)" />
  <circle
     cx="455.67001"
     cy="234.44"
     r="6.4000001"
     style="fill:#56b4e9;fill-opacity:1;stroke:#ffffff;stroke-width:1;stroke-opacity:0"
     id="circle12580"
     sodipodi:cx="455.67001"
     sodipodi:cy="234.44"
     sodipodi:rx="6.4000001"
     sodipodi:ry="6.4000001"
     transform="translate(74.407078,0.5)" />
  <polygon
     points="296.88,262.86 302.63,272.81 291.13,272.81 "
     style="fill:#d55e00;fill-opacity:1;stroke:#ffffff;stroke-width:1;stroke-opacity:0"
     id="polygon12582"
     transform="translate(74.407078,0.5)" />
  <polygon
     points="347.28,296.67 353.03,306.63 341.53,306.63 "
     style="fill:#d55e00;fill-opacity:1;stroke:#ffffff;stroke-width:1;stroke-opacity:0"
     id="polygon12584"
     transform="translate(74.407078,0.5)" />
  <circle
     cx="120.43"
     cy="286.97"
     r="6.4000001"
     style="fill:#56b4e9;fill-opacity:1;stroke:#ffffff;stroke-width:1;stroke-opacity:0"
     id="circle12586"
     sodipodi:cx="120.43"
     sodipodi:cy="286.97"
     sodipodi:rx="6.4000001"
     sodipodi:ry="6.4000001"
     transform="translate(74.407078,0.5)" />
  <polygon
     points="480.83,339.26 486.58,349.21 475.08,349.21 "
     style="fill:#d55e00;fill-opacity:1;stroke:#ffffff;stroke-width:1;stroke-opacity:0"
     id="polygon12588"
     transform="translate(74.407078,0.5)" />
  <polygon
     points="267.22,458.69 272.97,468.65 261.47,468.65 "
     style="fill:#d55e00;fill-opacity:1;stroke:#ffffff;stroke-width:1;stroke-opacity:0"
     id="polygon12590"
     transform="translate(74.407078,0.5)" />
  <polygon
     points="419.48,268.55 425.23,278.5 413.74,278.5 "
     style="fill:#d55e00;fill-opacity:1;stroke:#ffffff;stroke-width:1;stroke-opacity:0"
     id="polygon12592"
     transform="translate(74.407078,0.5)" />
  <polygon
     points="371.99,326.48 377.74,336.44 366.25,336.44 "
     style="fill:#d55e00;fill-opacity:1;stroke:#ffffff;stroke-width:1;stroke-opacity:0"
     id="polygon12594"
     transform="translate(74.407078,0.5)" />
  <polygon
     points="161.39,311.58 167.13,321.53 155.64,321.53 "
     style="fill:#d55e00;fill-opacity:1;stroke:#ffffff;stroke-width:1;stroke-opacity:0"
     id="polygon12596"
     transform="translate(74.407078,0.5)" />
  <polygon
     points="453.91,401.46 459.66,411.42 448.16,411.42 "
     style="fill:#d55e00;fill-opacity:1;stroke:#ffffff;stroke-width:1;stroke-opacity:0"
     id="polygon12598"
     transform="translate(74.407078,0.5)" />
  <polygon
     points="472.36,299.82 478.1,309.78 466.61,309.78 "
     style="fill:#d55e00;fill-opacity:1;stroke:#ffffff;stroke-width:1;stroke-opacity:0"
     id="polygon12600"
     transform="translate(74.407078,0.5)" />
  <circle
     cx="410.13"
     cy="344.06"
     r="6.4000001"
     style="fill:#56b4e9;fill-opacity:1;stroke:#ffffff;stroke-width:1;stroke-opacity:0"
     id="circle12602"
     sodipodi:cx="410.13"
     sodipodi:cy="344.06"
     sodipodi:rx="6.4000001"
     sodipodi:ry="6.4000001"
     transform="translate(74.407078,0.5)" />
  <circle
     cx="419.75"
     cy="217.5"
     r="6.4000001"
     style="fill:#56b4e9;fill-opacity:1;stroke:#ffffff;stroke-width:1;stroke-opacity:0"
     id="circle12604"
     sodipodi:cx="419.75"
     sodipodi:cy="217.5"
     sodipodi:rx="6.4000001"
     sodipodi:ry="6.4000001"
     transform="translate(74.407078,0.5)" />
  <circle
     cx="536.78998"
     cy="301.20999"
     r="6.4000001"
     style="fill:#56b4e9;fill-opacity:1;stroke:#ffffff;stroke-width:1;stroke-opacity:0"
     id="circle12606"
     sodipodi:cx="536.78998"
     sodipodi:cy="301.20999"
     sodipodi:rx="6.4000001"
     sodipodi:ry="6.4000001"
     transform="translate(74.407078,0.5)" />
  <circle
     cx="368.01999"
     cy="239.57001"
     r="6.4000001"
     style="fill:#56b4e9;fill-opacity:1;stroke:#ffffff;stroke-width:1;stroke-opacity:0"
     id="circle12608"
     sodipodi:cx="368.01999"
     sodipodi:cy="239.57001"
     sodipodi:rx="6.4000001"
     sodipodi:ry="6.4000001"
     transform="translate(74.407078,0.5)" />
  <circle
     cx="383.12"
     cy="365.14001"
     r="6.4000001"
     style="fill:#56b4e9;fill-opacity:1;stroke:#ffffff;stroke-width:1;stroke-opacity:0"
     id="circle12610"
     sodipodi:cx="383.12"
     sodipodi:cy="365.14001"
     sodipodi:rx="6.4000001"
     sodipodi:ry="6.4000001"
     transform="translate(74.407078,0.5)" />
  <circle
     cx="392.56"
     cy="328.29001"
     r="6.4000001"
     style="fill:#56b4e9;fill-opacity:1;stroke:#ffffff;stroke-width:1;stroke-opacity:0"
     id="circle12612"
     sodipodi:cx="392.56"
     sodipodi:cy="328.29001"
     sodipodi:rx="6.4000001"
     sodipodi:ry="6.4000001"
     transform="translate(74.407078,0.5)" />
  <polygon
     points="265.54,275.89 271.29,285.85 259.79,285.85 "
     style="fill:#d55e00;fill-opacity:1;stroke:#ffffff;stroke-width:1;stroke-opacity:0"
     id="polygon12614"
     transform="translate(74.407078,0.5)" />
  <circle
     cx="288.14001"
     cy="293.73999"
     r="6.4000001"
     style="fill:#56b4e9;fill-opacity:1;stroke:#ffffff;stroke-width:1;stroke-opacity:0"
     id="circle12616"
     sodipodi:cx="288.14001"
     sodipodi:cy="293.73999"
     sodipodi:rx="6.4000001"
     sodipodi:ry="6.4000001"
     transform="translate(74.407078,0.5)" />
  <polygon
     points="376.14,275.1 381.89,285.06 370.4,285.06 "
     style="fill:#d55e00;fill-opacity:1;stroke:#ffffff;stroke-width:1;stroke-opacity:0"
     id="polygon12618"
     transform="translate(74.407078,0.5)" />
  <circle
     cx="283.64001"
     cy="274.16"
     r="6.4000001"
     style="fill:#56b4e9;fill-opacity:1;stroke:#ffffff;stroke-width:1;stroke-opacity:0"
     id="circle12620"
     sodipodi:cx="283.64001"
     sodipodi:cy="274.16"
     sodipodi:rx="6.4000001"
     sodipodi:ry="6.4000001"
     transform="translate(74.407078,0.5)" />
  <polygon
     points="381.35,254.03 387.1,263.99 375.6,263.99 "
     style="fill:#d55e00;fill-opacity:1;stroke:#ffffff;stroke-width:1;stroke-opacity:0"
     id="polygon12622"
     transform="translate(74.407078,0.5)" />
  <circle
     cx="155.56"
     cy="299.98999"
     r="6.4000001"
     style="fill:#56b4e9;fill-opacity:1;stroke:#ffffff;stroke-width:1;stroke-opacity:0"
     id="circle12624"
     sodipodi:cx="155.56"
     sodipodi:cy="299.98999"
     sodipodi:rx="6.4000001"
     sodipodi:ry="6.4000001"
     transform="translate(74.407078,0.5)" />
  <polyline
     points="64.55 , 282.78 71.24 , 282.83 77.92 , 282.87 84.60 , 282.91 91.29 , 282.95 97.97 , 283.00 104.65 , 283.04 111.33 , 283.08 118.02 , 283.12 124.70 , 283.17 131.38 , 283.21 138.06 , 283.25 144.75 , 283.30 151.43 , 283.34 158.11 , 283.38 164.80 , 283.42 171.48 , 283.47 178.16 , 283.51 184.84 , 283.55 191.53 , 283.59 198.21 , 283.64 204.89 , 283.68 211.57 , 283.72 218.26 , 283.77 224.94 , 283.81 231.62 , 283.85 238.31 , 283.89 244.99 , 283.94 251.67 , 283.98 258.35 , 284.02 265.04 , 284.06 271.72 , 284.11 278.40 , 284.15 285.08 , 284.19 291.77 , 284.23 298.45 , 284.28 305.13 , 284.32 311.82 , 284.36 318.50 , 284.41 325.18 , 284.45 331.86 , 284.49 338.55 , 284.53 345.23 , 284.58 351.91 , 284.62 358.59 , 284.66 365.28 , 284.70 371.96 , 284.75 378.64 , 284.79 385.33 , 284.83 392.01 , 284.88 398.69 , 284.92 405.37 , 284.96 412.06 , 285.00 418.74 , 285.05 425.42 , 285.09 432.10 , 285.13 438.79 , 285.17 445.47 , 285.22 452.15 , 285.26 458.84 , 285.30 465.52 , 285.34 472.20 , 285.39 478.88 , 285.43 485.57 , 285.47 492.25 , 285.52 498.93 , 285.56 505.61 , 285.60 512.30 , 285.64 518.98 , 285.69 525.66 , 285.73 532.35 , 285.77 539.03 , 285.81 545.71 , 285.86 552.39 , 285.90 559.08 , 285.94 565.76 , 285.99 572.44 , 286.03 579.12 , 286.07 585.81 , 286.11 592.49 , 286.16 "
     style="fill:#000000;fill-opacity:0;stroke:#56b4e9;stroke-width:5;stroke-opacity:1"
     id="polyline12626"
     transform="translate(74.407078,0.5)" />
  <polyline
     points="111.78 , 281.01 116.45 , 281.64 121.12 , 282.27 125.79 , 282.91 130.46 , 283.54 135.14 , 284.17 139.81 , 284.80 144.48 , 285.43 149.15 , 286.06 153.82 , 286.69 158.49 , 287.32 163.17 , 287.95 167.84 , 288.59 172.51 , 289.22 177.18 , 289.85 181.85 , 290.48 186.52 , 291.11 191.19 , 291.74 195.87 , 292.37 200.54 , 293.00 205.21 , 293.63 209.88 , 294.26 214.55 , 294.90 219.22 , 295.53 223.90 , 296.16 228.57 , 296.79 233.24 , 297.42 237.91 , 298.05 242.58 , 298.68 247.25 , 299.31 251.92 , 299.94 256.60 , 300.58 261.27 , 301.21 265.94 , 301.84 270.61 , 302.47 275.28 , 303.10 279.95 , 303.73 284.63 , 304.36 289.30 , 304.99 293.97 , 305.62 298.64 , 306.25 303.31 , 306.89 307.98 , 307.52 312.65 , 308.15 317.33 , 308.78 322.00 , 309.41 326.67 , 310.04 331.34 , 310.67 336.01 , 311.30 340.68 , 311.93 345.36 , 312.57 350.03 , 313.20 354.70 , 313.83 359.37 , 314.46 364.04 , 315.09 368.71 , 315.72 373.38 , 316.35 378.06 , 316.98 382.73 , 317.61 387.40 , 318.24 392.07 , 318.88 396.74 , 319.51 401.41 , 320.14 406.09 , 320.77 410.76 , 321.40 415.43 , 322.03 420.10 , 322.66 424.77 , 323.29 429.44 , 323.92 434.11 , 324.56 438.79 , 325.19 443.46 , 325.82 448.13 , 326.45 452.80 , 327.08 457.47 , 327.71 462.14 , 328.34 466.82 , 328.97 471.49 , 329.60 476.16 , 330.23 480.83 , 330.87 "
     style="fill:#000000;fill-opacity:0;stroke:#d55e00;stroke-width:5;stroke-opacity:1"
     id="polyline12628"
     transform="translate(74.407078,0.5)" />
  <polyline
     points="618.89 , 12.04 618.89 , 526.60 38.16 , 526.60 "
     style="fill:#000000;fill-opacity:0;stroke:#7f7f7f;stroke-width:1;stroke-miterlimit:4;stroke-opacity:1;stroke-dasharray:none"
     id="polyline12630"
     transform="translate(74.407078,0.5)" />
  <text
     style="font-size:19px"
     id="text12632"
     x="76.044189"
     y="527.65997">-50</text>
  <text
     style="font-size:19px"
     id="text12634"
     x="95.007072"
     y="410.85999">0</text>
  <text
     style="font-size:19px"
     id="text12636"
     x="82.909424"
     y="294.04999">50</text>
  <text
     style="font-size:19px"
     id="text12638"
     x="70.811768"
     y="177.25">100</text>
  <text
     style="font-size:19px"
     id="text12640"
     x="70.811768"
     y="60.450001">150</text>
  <polyline
     points="33.89 , 519.96 38.16 , 519.96 "
     style="fill:#000000;fill-opacity:0;stroke:#000000;stroke-width:1;stroke-opacity:1"
     id="polyline12642"
     transform="translate(74.407078,0.5)" />
  <polyline
     points="33.89 , 403.16 38.16 , 403.16 "
     style="fill:#000000;fill-opacity:0;stroke:#000000;stroke-width:1;stroke-opacity:1"
     id="polyline12644"
     transform="translate(74.407078,0.5)" />
  <polyline
     points="33.89 , 286.35 38.16 , 286.35 "
     style="fill:#000000;fill-opacity:0;stroke:#000000;stroke-width:1;stroke-opacity:1"
     id="polyline12646"
     transform="translate(74.407078,0.5)" />
  <polyline
     points="33.89 , 169.55 38.16 , 169.55 "
     style="fill:#000000;fill-opacity:0;stroke:#000000;stroke-width:1;stroke-opacity:1"
     id="polyline12648"
     transform="translate(74.407078,0.5)" />
  <polyline
     points="33.89 , 52.75 38.16 , 52.75 "
     style="fill:#000000;fill-opacity:0;stroke:#000000;stroke-width:1;stroke-opacity:1"
     id="polyline12650"
     transform="translate(74.407078,0.5)" />
  <polyline
     points="42.36 , 530.87 42.36 , 526.60 "
     style="fill:#000000;fill-opacity:0;stroke:#000000;stroke-width:1;stroke-opacity:1"
     id="polyline12652"
     transform="translate(74.407078,0.5)" />
  <polyline
     points="203.11 , 530.87 203.11 , 526.60 "
     style="fill:#000000;fill-opacity:0;stroke:#000000;stroke-width:1;stroke-opacity:1"
     id="polyline12654"
     transform="translate(74.407078,0.5)" />
  <polyline
     points="363.87 , 530.87 363.87 , 526.60 "
     style="fill:#000000;fill-opacity:0;stroke:#000000;stroke-width:1;stroke-opacity:1"
     id="polyline12656"
     transform="translate(74.407078,0.5)" />
  <polyline
     points="524.63 , 530.87 524.63 , 526.60 "
     style="fill:#000000;fill-opacity:0;stroke:#000000;stroke-width:1;stroke-opacity:1"
     id="polyline12658"
     transform="translate(74.407078,0.5)" />
  <text
     style="font-size:19px"
     id="text12660"
     x="106.31708"
     y="548.62">10</text>
  <text
     style="font-size:19px"
     id="text12662"
     x="267.06708"
     y="548.62">15</text>
  <text
     style="font-size:19px"
     id="text12664"
     x="427.82709"
     y="548.62">20</text>
  <text
     style="font-size:19px"
     id="text12666"
     x="588.5871"
     y="548.62">25</text>
  <text
     style="font-size:24px"
     id="text12668"
     x="340.10709"
     y="569.63">Age (years)</text>
  <text
     xml:space="preserve"
     style="font-size:40px;font-style:normal;font-weight:normal;line-height:125%;letter-spacing:0px;word-spacing:0px;fill:#000000;fill-opacity:1;stroke:none;font-family:Sans"
     x="-284.36194"
     y="23.718348"
     id="text12676"
     sodipodi:linespacing="125%"
     transform="matrix(0,-1,1,0,0,0)"><tspan
       sodipodi:role="line"
       id="tspan12678"
       x="-284.36194"
       y="23.718348"
       style="font-size:24.00000191px;text-align:center;text-anchor:middle">Hemisphere difference (µV)</tspan><tspan
       sodipodi:role="line"
       x="-284.36194"
       y="47.737854"
       style="font-size:18px;text-align:center;text-anchor:middle"
       id="tspan12680">Nasal - Temporal</tspan></text>
  <rect
     style="fill:#000000;fill-opacity:0;stroke:#000000;stroke-width:2;stroke-miterlimit:4;stroke-opacity:1;stroke-dasharray:none"
     id="rect13190"
     width="581.18817"
     height="514.85144"
     x="113.02091"
     y="11.333241" />
  <circle
     sodipodi:ry="6.4000001"
     sodipodi:rx="6.4000001"
     sodipodi:cy="261.60999"
     sodipodi:cx="592.48999"
     transform="matrix(1.6457168,0,0,1.6457168,-249.67356,-204.84625)"
     cx="592.48999"
     cy="261.60999"
     r="6.4000001"
     style="fill:#56b4e9;fill-opacity:1;stroke:#ffffff;stroke-width:1;stroke-opacity:0"
     id="circle12468-0" />
  <polygon
     transform="matrix(2.029703,0,0,2.029703,-250.54492,-431.22889)"
     points="486.58,349.21 475.08,349.21 480.83,339.26 "
     style="fill:#d55e00;fill-opacity:1;stroke:#ffffff;stroke-width:1;stroke-opacity:0"
     id="polygon12588-6" />
  <text
     xml:space="preserve"
     style="font-size:40px;font-style:normal;font-weight:normal;line-height:125%;letter-spacing:0px;word-spacing:0px;fill:#000000;fill-opacity:1;stroke:none;font-family:Sans"
     x="754.4549"
     y="232.12532"
     id="text13228"
     sodipodi:linespacing="125%"><tspan
       sodipodi:role="line"
       id="tspan13230"
       x="754.4549"
       y="232.12532"
       style="font-size:20px">Control</tspan></text>
  <text
     xml:space="preserve"
     style="font-size:40px;font-style:normal;font-weight:normal;line-height:125%;letter-spacing:0px;word-spacing:0px;fill:#000000;fill-opacity:1;stroke:none;font-family:Sans"
     x="753.61505"
     y="274.92197"
     id="text13232"
     sodipodi:linespacing="125%"><tspan
       sodipodi:role="line"
       id="tspan13234"
       x="753.61505"
       y="274.92197"
       style="font-size:20px">Diabetic</tspan></text>
</svg>
