<?xml version="1.0" encoding="UTF-8"?>
<svg xmlns="http://www.w3.org/2000/svg" width="722.70" height="578.16" viewBox="0,0,722.70,578.16">
<desc>R SVG Plot!</desc>
<rect width="100%" height="100%" style="fill:#FFFFFF"/>
<polygon points="164.25 , 37.31 197.10 , 12.04 229.95 , 37.31 229.95 , 60.81 197.10 , 84.31 164.25 , 60.81 " style="stroke-width:1;stroke:#000000;fill:#56B4E9;stroke-opacity:1.000000;fill-opacity:1.000000" />
<polygon points="229.95 , 37.31 262.80 , 12.04 295.65 , 37.31 295.65 , 60.81 262.80 , 84.31 229.95 , 60.81 " style="stroke-width:1;stroke:#000000;fill:#56B4E9;stroke-opacity:1.000000;fill-opacity:1.000000" />
<polygon points="295.65 , 37.31 328.50 , 12.04 361.35 , 37.31 361.35 , 60.81 328.50 , 84.31 295.65 , 60.81 " style="stroke-width:1;stroke:#000000;fill:#56B4E9;stroke-opacity:1.000000;fill-opacity:1.000000" />
<polygon points="361.35 , 37.31 394.20 , 12.04 427.05 , 37.31 427.05 , 60.81 394.20 , 84.31 361.35 , 60.81 " style="stroke-width:1;stroke:#000000;fill:#D55E00;stroke-opacity:1.000000;fill-opacity:1.000000" />
<polygon points="427.05 , 37.31 459.90 , 12.04 492.75 , 37.31 492.75 , 60.81 459.90 , 84.31 427.05 , 60.81 " style="stroke-width:1;stroke:#000000;fill:#D55E00;stroke-opacity:1.000000;fill-opacity:1.000000" />
<polygon points="492.75 , 37.31 525.60 , 12.04 558.45 , 37.31 558.45 , 60.81 525.60 , 84.31 492.75 , 60.81 " style="stroke-width:1;stroke:#000000;fill:#D55E00;stroke-opacity:1.000000;fill-opacity:1.000000" />
<polygon points="65.70 , 85.49 98.55 , 60.22 131.40 , 85.49 131.40 , 108.99 98.55 , 132.49 65.70 , 108.99 " style="stroke-width:1;stroke:#000000;fill:#56B4E9;stroke-opacity:1.000000;fill-opacity:1.000000" />
<polygon points="131.40 , 85.49 164.25 , 60.22 197.10 , 85.49 197.10 , 108.99 164.25 , 132.49 131.40 , 108.99 " style="stroke-width:1;stroke:#000000;fill:#56B4E9;stroke-opacity:1.000000;fill-opacity:1.000000" />
<polygon points="197.10 , 85.49 229.95 , 60.22 262.80 , 85.49 262.80 , 108.99 229.95 , 132.49 197.10 , 108.99 " style="stroke-width:1;stroke:#000000;fill:#56B4E9;stroke-opacity:1.000000;fill-opacity:1.000000" />
<polygon points="262.80 , 85.49 295.65 , 60.22 328.50 , 85.49 328.50 , 108.99 295.65 , 132.49 262.80 , 108.99 " style="stroke-width:1;stroke:#000000;fill:#56B4E9;stroke-opacity:1.000000;fill-opacity:1.000000" />
<polygon points="328.50 , 85.49 361.35 , 60.22 394.20 , 85.49 394.20 , 108.99 361.35 , 132.49 328.50 , 108.99 " style="stroke-width:1;stroke:#000000;fill:#000000;stroke-opacity:1.000000;fill-opacity:1.000000" />
<polygon points="394.20 , 85.49 427.05 , 60.22 459.90 , 85.49 459.90 , 108.99 427.05 , 132.49 394.20 , 108.99 " style="stroke-width:1;stroke:#000000;fill:#D55E00;stroke-opacity:1.000000;fill-opacity:1.000000" />
<polygon points="459.90 , 85.49 492.75 , 60.22 525.60 , 85.49 525.60 , 108.99 492.75 , 132.49 459.90 , 108.99 " style="stroke-width:1;stroke:#000000;fill:#D55E00;stroke-opacity:1.000000;fill-opacity:1.000000" />
<polygon points="525.60 , 85.49 558.45 , 60.22 591.30 , 85.49 591.30 , 108.99 558.45 , 132.49 525.60 , 108.99 " style="stroke-width:1;stroke:#000000;fill:#D55E00;stroke-opacity:1.000000;fill-opacity:1.000000" />
<polygon points="591.30 , 85.49 624.15 , 60.22 657.00 , 85.49 657.00 , 108.99 624.15 , 132.49 591.30 , 108.99 " style="stroke-width:1;stroke:#000000;fill:#D55E00;stroke-opacity:1.000000;fill-opacity:1.000000" />
<polygon points="32.85 , 133.67 65.70 , 108.40 98.55 , 133.67 98.55 , 157.17 65.70 , 180.67 32.85 , 157.17 " style="stroke-width:1;stroke:#000000;fill:#56B4E9;stroke-opacity:1.000000;fill-opacity:1.000000" />
<polygon points="98.55 , 133.67 131.40 , 108.40 164.25 , 133.67 164.25 , 157.17 131.40 , 180.67 98.55 , 157.17 " style="stroke-width:1;stroke:#000000;fill:#56B4E9;stroke-opacity:1.000000;fill-opacity:1.000000" />
<polygon points="164.25 , 133.67 197.10 , 108.40 229.95 , 133.67 229.95 , 157.17 197.10 , 180.67 164.25 , 157.17 " style="stroke-width:1;stroke:#000000;fill:#56B4E9;stroke-opacity:1.000000;fill-opacity:1.000000" />
<polygon points="229.95 , 133.67 262.80 , 108.40 295.65 , 133.67 295.65 , 157.17 262.80 , 180.67 229.95 , 157.17 " style="stroke-width:1;stroke:#000000;fill:#56B4E9;stroke-opacity:1.000000;fill-opacity:1.000000" />
<polygon points="295.65 , 133.67 328.50 , 108.40 361.35 , 133.67 361.35 , 157.17 328.50 , 180.67 295.65 , 157.17 " style="stroke-width:1;stroke:#000000;fill:#56B4E9;stroke-opacity:1.000000;fill-opacity:1.000000" />
<polygon points="361.35 , 133.67 394.20 , 108.40 427.05 , 133.67 427.05 , 157.17 394.20 , 180.67 361.35 , 157.17 " style="stroke-width:1;stroke:#000000;fill:#D55E00;stroke-opacity:1.000000;fill-opacity:1.000000" />
<polygon points="427.05 , 133.67 459.90 , 108.40 492.75 , 133.67 492.75 , 157.17 459.90 , 180.67 427.05 , 157.17 " style="stroke-width:1;stroke:#000000;fill:#D55E00;stroke-opacity:1.000000;fill-opacity:1.000000" />
<polygon points="492.75 , 133.67 525.60 , 108.40 558.45 , 133.67 558.45 , 157.17 525.60 , 180.67 492.75 , 157.17 " style="stroke-width:1;stroke:#000000;fill:#D55E00;stroke-opacity:1.000000;fill-opacity:1.000000" />
<polygon points="558.45 , 133.67 591.30 , 108.40 624.15 , 133.67 624.15 , 157.17 591.30 , 180.67 558.45 , 157.17 " style="stroke-width:1;stroke:#000000;fill:#D55E00;stroke-opacity:1.000000;fill-opacity:1.000000" />
<polygon points="624.15 , 133.67 657.00 , 108.40 689.85 , 133.67 689.85 , 157.17 657.00 , 180.67 624.15 , 157.17 " style="stroke-width:1;stroke:#000000;fill:#D55E00;stroke-opacity:1.000000;fill-opacity:1.000000" />
<polygon points="0.00 , 181.85 32.85 , 156.58 65.70 , 181.85 65.70 , 205.35 32.85 , 228.86 0.00 , 205.35 " style="stroke-width:1;stroke:#000000;fill:#000000;stroke-opacity:1.000000;fill-opacity:1.000000" />
<polygon points="65.70 , 181.85 98.55 , 156.58 131.40 , 181.85 131.40 , 205.35 98.55 , 228.86 65.70 , 205.35 " style="stroke-width:1;stroke:#000000;fill:#000000;stroke-opacity:1.000000;fill-opacity:1.000000" />
<polygon points="131.40 , 181.85 164.25 , 156.58 197.10 , 181.85 197.10 , 205.35 164.25 , 228.86 131.40 , 205.35 " style="stroke-width:1;stroke:#000000;fill:#56B4E9;stroke-opacity:1.000000;fill-opacity:1.000000" />
<polygon points="197.10 , 181.85 229.95 , 156.58 262.80 , 181.85 262.80 , 205.35 229.95 , 228.86 197.10 , 205.35 " style="stroke-width:1;stroke:#000000;fill:#56B4E9;stroke-opacity:1.000000;fill-opacity:1.000000" />
<polygon points="262.80 , 181.85 295.65 , 156.58 328.50 , 181.85 328.50 , 205.35 295.65 , 228.86 262.80 , 205.35 " style="stroke-width:1;stroke:#000000;fill:#56B4E9;stroke-opacity:1.000000;fill-opacity:1.000000" />
<polygon points="328.50 , 181.85 361.35 , 156.58 394.20 , 181.85 394.20 , 205.35 361.35 , 228.86 328.50 , 205.35 " style="stroke-width:1;stroke:#000000;fill:#000000;stroke-opacity:1.000000;fill-opacity:1.000000" />
<polygon points="394.20 , 181.85 427.05 , 156.58 459.90 , 181.85 459.90 , 205.35 427.05 , 228.86 394.20 , 205.35 " style="stroke-width:1;stroke:#000000;fill:#D55E00;stroke-opacity:1.000000;fill-opacity:1.000000" />
<polygon points="459.90 , 181.85 492.75 , 156.58 525.60 , 181.85 525.60 , 205.35 492.75 , 228.86 459.90 , 205.35 " style="stroke-width:1;stroke:#000000;fill:#D55E00;stroke-opacity:1.000000;fill-opacity:1.000000" />
<polygon points="525.60 , 181.85 558.45 , 156.58 591.30 , 181.85 591.30 , 205.35 558.45 , 228.86 525.60 , 205.35 " style="stroke-width:1;stroke:#000000;fill:#D55E00;stroke-opacity:1.000000;fill-opacity:1.000000" />
<polygon points="591.30 , 181.85 624.15 , 156.58 657.00 , 181.85 657.00 , 205.35 624.15 , 228.86 591.30 , 205.35 " style="stroke-width:1;stroke:#000000;fill:#000000;stroke-opacity:1.000000;fill-opacity:1.000000" />
<polygon points="657.00 , 181.85 689.85 , 156.58 722.70 , 181.85 722.70 , 205.35 689.85 , 228.86 657.00 , 205.35 " style="stroke-width:1;stroke:#000000;fill:#000000;stroke-opacity:1.000000;fill-opacity:1.000000" />
<polygon points="32.85 , 230.03 65.70 , 204.76 98.55 , 230.03 98.55 , 253.53 65.70 , 277.03 32.85 , 253.53 " style="stroke-width:1;stroke:#000000;fill:#000000;stroke-opacity:1.000000;fill-opacity:1.000000" />
<polygon points="98.55 , 230.03 131.40 , 204.76 164.25 , 230.03 164.25 , 253.53 131.40 , 277.03 98.55 , 253.53 " style="stroke-width:1;stroke:#000000;fill:#000000;stroke-opacity:1.000000;fill-opacity:1.000000" />
<polygon points="164.25 , 230.03 197.10 , 204.76 229.95 , 230.03 229.95 , 253.53 197.10 , 277.03 164.25 , 253.53 " style="stroke-width:1;stroke:#000000;fill:#56B4E9;stroke-opacity:1.000000;fill-opacity:1.000000" />
<polygon points="229.95 , 230.03 262.80 , 204.76 295.65 , 230.03 295.65 , 253.53 262.80 , 277.03 229.95 , 253.53 " style="stroke-width:1;stroke:#000000;fill:#56B4E9;stroke-opacity:1.000000;fill-opacity:1.000000" />
<polygon points="295.65 , 230.03 328.50 , 204.76 361.35 , 230.03 361.35 , 253.53 328.50 , 277.03 295.65 , 253.53 " style="stroke-width:1;stroke:#000000;fill:#56B4E9;stroke-opacity:1.000000;fill-opacity:1.000000" />
<polygon points="361.35 , 230.03 394.20 , 204.76 427.05 , 230.03 427.05 , 253.53 394.20 , 277.03 361.35 , 253.53 " style="stroke-width:1;stroke:#000000;fill:#D55E00;stroke-opacity:1.000000;fill-opacity:1.000000" />
<polygon points="427.05 , 230.03 459.90 , 204.76 492.75 , 230.03 492.75 , 253.53 459.90 , 277.03 427.05 , 253.53 " style="stroke-width:1;stroke:#000000;fill:#D55E00;stroke-opacity:1.000000;fill-opacity:1.000000" />
<polygon points="492.75 , 230.03 525.60 , 204.76 558.45 , 230.03 558.45 , 253.53 525.60 , 277.03 492.75 , 253.53 " style="stroke-width:1;stroke:#000000;fill:#D55E00;stroke-opacity:1.000000;fill-opacity:1.000000" />
<polygon points="558.45 , 230.03 591.30 , 204.76 624.15 , 230.03 624.15 , 253.53 591.30 , 277.03 558.45 , 253.53 " style="stroke-width:1;stroke:#000000;fill:#000000;stroke-opacity:1.000000;fill-opacity:1.000000" />
<polygon points="624.15 , 230.03 657.00 , 204.76 689.85 , 230.03 689.85 , 253.53 657.00 , 277.03 624.15 , 253.53 " style="stroke-width:1;stroke:#000000;fill:#000000;stroke-opacity:1.000000;fill-opacity:1.000000" />
<polygon points="0.00 , 278.21 32.85 , 252.94 65.70 , 278.21 65.70 , 301.71 32.85 , 325.21 0.00 , 301.71 " style="stroke-width:1;stroke:#000000;fill:#000000;stroke-opacity:1.000000;fill-opacity:1.000000" />
<polygon points="65.70 , 278.21 98.55 , 252.94 131.40 , 278.21 131.40 , 301.71 98.55 , 325.21 65.70 , 301.71 " style="stroke-width:1;stroke:#000000;fill:#000000;stroke-opacity:1.000000;fill-opacity:1.000000" />
<polygon points="131.40 , 278.21 164.25 , 252.94 197.10 , 278.21 197.10 , 301.71 164.25 , 325.21 131.40 , 301.71 " style="stroke-width:1;stroke:#000000;fill:#000000;stroke-opacity:1.000000;fill-opacity:1.000000" />
<polygon points="197.10 , 278.21 229.95 , 252.94 262.80 , 278.21 262.80 , 301.71 229.95 , 325.21 197.10 , 301.71 " style="stroke-width:1;stroke:#000000;fill:#56B4E9;stroke-opacity:1.000000;fill-opacity:1.000000" />
<polygon points="262.80 , 278.21 295.65 , 252.94 328.50 , 278.21 328.50 , 301.71 295.65 , 325.21 262.80 , 301.71 " style="stroke-width:1;stroke:#000000;fill:#56B4E9;stroke-opacity:1.000000;fill-opacity:1.000000" />
<polygon points="328.50 , 278.21 361.35 , 252.94 394.20 , 278.21 394.20 , 301.71 361.35 , 325.21 328.50 , 301.71 " style="stroke-width:1;stroke:#000000;fill:#000000;stroke-opacity:1.000000;fill-opacity:1.000000" />
<polygon points="394.20 , 278.21 427.05 , 252.94 459.90 , 278.21 459.90 , 301.71 427.05 , 325.21 394.20 , 301.71 " style="stroke-width:1;stroke:#000000;fill:#D55E00;stroke-opacity:1.000000;fill-opacity:1.000000" />
<polygon points="459.90 , 278.21 492.75 , 252.94 525.60 , 278.21 525.60 , 301.71 492.75 , 325.21 459.90 , 301.71 " style="stroke-width:1;stroke:#000000;fill:#D55E00;stroke-opacity:1.000000;fill-opacity:1.000000" />
<polygon points="525.60 , 278.21 558.45 , 252.94 591.30 , 278.21 591.30 , 301.71 558.45 , 325.21 525.60 , 301.71 " style="stroke-width:1;stroke:#000000;fill:#000000;stroke-opacity:1.000000;fill-opacity:1.000000" />
<polygon points="591.30 , 278.21 624.15 , 252.94 657.00 , 278.21 657.00 , 301.71 624.15 , 325.21 591.30 , 301.71 " style="stroke-width:1;stroke:#000000;fill:#000000;stroke-opacity:1.000000;fill-opacity:1.000000" />
<polygon points="657.00 , 278.21 689.85 , 252.94 722.70 , 278.21 722.70 , 301.71 689.85 , 325.21 657.00 , 301.71 " style="stroke-width:1;stroke:#000000;fill:#000000;stroke-opacity:1.000000;fill-opacity:1.000000" />
<polygon points="32.85 , 326.39 65.70 , 301.12 98.55 , 326.39 98.55 , 349.89 65.70 , 373.39 32.85 , 349.89 " style="stroke-width:1;stroke:#000000;fill:#000000;stroke-opacity:1.000000;fill-opacity:1.000000" />
<polygon points="98.55 , 326.39 131.40 , 301.12 164.25 , 326.39 164.25 , 349.89 131.40 , 373.39 98.55 , 349.89 " style="stroke-width:1;stroke:#000000;fill:#000000;stroke-opacity:1.000000;fill-opacity:1.000000" />
<polygon points="164.25 , 326.39 197.10 , 301.12 229.95 , 326.39 229.95 , 349.89 197.10 , 373.39 164.25 , 349.89 " style="stroke-width:1;stroke:#000000;fill:#56B4E9;stroke-opacity:1.000000;fill-opacity:1.000000" />
<polygon points="229.95 , 326.39 262.80 , 301.12 295.65 , 326.39 295.65 , 349.89 262.80 , 373.39 229.95 , 349.89 " style="stroke-width:1;stroke:#000000;fill:#56B4E9;stroke-opacity:1.000000;fill-opacity:1.000000" />
<polygon points="295.65 , 326.39 328.50 , 301.12 361.35 , 326.39 361.35 , 349.89 328.50 , 373.39 295.65 , 349.89 " style="stroke-width:1;stroke:#000000;fill:#56B4E9;stroke-opacity:1.000000;fill-opacity:1.000000" />
<polygon points="361.35 , 326.39 394.20 , 301.12 427.05 , 326.39 427.05 , 349.89 394.20 , 373.39 361.35 , 349.89 " style="stroke-width:1;stroke:#000000;fill:#D55E00;stroke-opacity:1.000000;fill-opacity:1.000000" />
<polygon points="427.05 , 326.39 459.90 , 301.12 492.75 , 326.39 492.75 , 349.89 459.90 , 373.39 427.05 , 349.89 " style="stroke-width:1;stroke:#000000;fill:#D55E00;stroke-opacity:1.000000;fill-opacity:1.000000" />
<polygon points="492.75 , 326.39 525.60 , 301.12 558.45 , 326.39 558.45 , 349.89 525.60 , 373.39 492.75 , 349.89 " style="stroke-width:1;stroke:#000000;fill:#D55E00;stroke-opacity:1.000000;fill-opacity:1.000000" />
<polygon points="558.45 , 326.39 591.30 , 301.12 624.15 , 326.39 624.15 , 349.89 591.30 , 373.39 558.45 , 349.89 " style="stroke-width:1;stroke:#000000;fill:#000000;stroke-opacity:1.000000;fill-opacity:1.000000" />
<polygon points="624.15 , 326.39 657.00 , 301.12 689.85 , 326.39 689.85 , 349.89 657.00 , 373.39 624.15 , 349.89 " style="stroke-width:1;stroke:#000000;fill:#000000;stroke-opacity:1.000000;fill-opacity:1.000000" />
<polygon points="0.00 , 374.57 32.85 , 349.30 65.70 , 374.57 65.70 , 398.07 32.85 , 421.57 0.00 , 398.07 " style="stroke-width:1;stroke:#000000;fill:#000000;stroke-opacity:1.000000;fill-opacity:1.000000" />
<polygon points="65.70 , 374.57 98.55 , 349.30 131.40 , 374.57 131.40 , 398.07 98.55 , 421.57 65.70 , 398.07 " style="stroke-width:1;stroke:#000000;fill:#000000;stroke-opacity:1.000000;fill-opacity:1.000000" />
<polygon points="131.40 , 374.57 164.25 , 349.30 197.10 , 374.57 197.10 , 398.07 164.25 , 421.57 131.40 , 398.07 " style="stroke-width:1;stroke:#000000;fill:#56B4E9;stroke-opacity:1.000000;fill-opacity:1.000000" />
<polygon points="197.10 , 374.57 229.95 , 349.30 262.80 , 374.57 262.80 , 398.07 229.95 , 421.57 197.10 , 398.07 " style="stroke-width:1;stroke:#000000;fill:#56B4E9;stroke-opacity:1.000000;fill-opacity:1.000000" />
<polygon points="262.80 , 374.57 295.65 , 349.30 328.50 , 374.57 328.50 , 398.07 295.65 , 421.57 262.80 , 398.07 " style="stroke-width:1;stroke:#000000;fill:#56B4E9;stroke-opacity:1.000000;fill-opacity:1.000000" />
<polygon points="328.50 , 374.57 361.35 , 349.30 394.20 , 374.57 394.20 , 398.07 361.35 , 421.57 328.50 , 398.07 " style="stroke-width:1;stroke:#000000;fill:#000000;stroke-opacity:1.000000;fill-opacity:1.000000" />
<polygon points="394.20 , 374.57 427.05 , 349.30 459.90 , 374.57 459.90 , 398.07 427.05 , 421.57 394.20 , 398.07 " style="stroke-width:1;stroke:#000000;fill:#D55E00;stroke-opacity:1.000000;fill-opacity:1.000000" />
<polygon points="459.90 , 374.57 492.75 , 349.30 525.60 , 374.57 525.60 , 398.07 492.75 , 421.57 459.90 , 398.07 " style="stroke-width:1;stroke:#000000;fill:#D55E00;stroke-opacity:1.000000;fill-opacity:1.000000" />
<polygon points="525.60 , 374.57 558.45 , 349.30 591.30 , 374.57 591.30 , 398.07 558.45 , 421.57 525.60 , 398.07 " style="stroke-width:1;stroke:#000000;fill:#D55E00;stroke-opacity:1.000000;fill-opacity:1.000000" />
<polygon points="591.30 , 374.57 624.15 , 349.30 657.00 , 374.57 657.00 , 398.07 624.15 , 421.57 591.30 , 398.07 " style="stroke-width:1;stroke:#000000;fill:#000000;stroke-opacity:1.000000;fill-opacity:1.000000" />
<polygon points="657.00 , 374.57 689.85 , 349.30 722.70 , 374.57 722.70 , 398.07 689.85 , 421.57 657.00 , 398.07 " style="stroke-width:1;stroke:#000000;fill:#000000;stroke-opacity:1.000000;fill-opacity:1.000000" />
<polygon points="32.85 , 422.75 65.70 , 397.48 98.55 , 422.75 98.55 , 446.25 65.70 , 469.75 32.85 , 446.25 " style="stroke-width:1;stroke:#000000;fill:#56B4E9;stroke-opacity:1.000000;fill-opacity:1.000000" />
<polygon points="98.55 , 422.75 131.40 , 397.48 164.25 , 422.75 164.25 , 446.25 131.40 , 469.75 98.55 , 446.25 " style="stroke-width:1;stroke:#000000;fill:#56B4E9;stroke-opacity:1.000000;fill-opacity:1.000000" />
<polygon points="164.25 , 422.75 197.10 , 397.48 229.95 , 422.75 229.95 , 446.25 197.10 , 469.75 164.25 , 446.25 " style="stroke-width:1;stroke:#000000;fill:#56B4E9;stroke-opacity:1.000000;fill-opacity:1.000000" />
<polygon points="229.95 , 422.75 262.80 , 397.48 295.65 , 422.75 295.65 , 446.25 262.80 , 469.75 229.95 , 446.25 " style="stroke-width:1;stroke:#000000;fill:#56B4E9;stroke-opacity:1.000000;fill-opacity:1.000000" />
<polygon points="295.65 , 422.75 328.50 , 397.48 361.35 , 422.75 361.35 , 446.25 328.50 , 469.75 295.65 , 446.25 " style="stroke-width:1;stroke:#000000;fill:#56B4E9;stroke-opacity:1.000000;fill-opacity:1.000000" />
<polygon points="361.35 , 422.75 394.20 , 397.48 427.05 , 422.75 427.05 , 446.25 394.20 , 469.75 361.35 , 446.25 " style="stroke-width:1;stroke:#000000;fill:#D55E00;stroke-opacity:1.000000;fill-opacity:1.000000" />
<polygon points="427.05 , 422.75 459.90 , 397.48 492.75 , 422.75 492.75 , 446.25 459.90 , 469.75 427.05 , 446.25 " style="stroke-width:1;stroke:#000000;fill:#D55E00;stroke-opacity:1.000000;fill-opacity:1.000000" />
<polygon points="492.75 , 422.75 525.60 , 397.48 558.45 , 422.75 558.45 , 446.25 525.60 , 469.75 492.75 , 446.25 " style="stroke-width:1;stroke:#000000;fill:#D55E00;stroke-opacity:1.000000;fill-opacity:1.000000" />
<polygon points="558.45 , 422.75 591.30 , 397.48 624.15 , 422.75 624.15 , 446.25 591.30 , 469.75 558.45 , 446.25 " style="stroke-width:1;stroke:#000000;fill:#D55E00;stroke-opacity:1.000000;fill-opacity:1.000000" />
<polygon points="624.15 , 422.75 657.00 , 397.48 689.85 , 422.75 689.85 , 446.25 657.00 , 469.75 624.15 , 446.25 " style="stroke-width:1;stroke:#000000;fill:#D55E00;stroke-opacity:1.000000;fill-opacity:1.000000" />
<polygon points="65.70 , 470.93 98.55 , 445.66 131.40 , 470.93 131.40 , 494.43 98.55 , 517.93 65.70 , 494.43 " style="stroke-width:1;stroke:#000000;fill:#56B4E9;stroke-opacity:1.000000;fill-opacity:1.000000" />
<polygon points="131.40 , 470.93 164.25 , 445.66 197.10 , 470.93 197.10 , 494.43 164.25 , 517.93 131.40 , 494.43 " style="stroke-width:1;stroke:#000000;fill:#56B4E9;stroke-opacity:1.000000;fill-opacity:1.000000" />
<polygon points="197.10 , 470.93 229.95 , 445.66 262.80 , 470.93 262.80 , 494.43 229.95 , 517.93 197.10 , 494.43 " style="stroke-width:1;stroke:#000000;fill:#56B4E9;stroke-opacity:1.000000;fill-opacity:1.000000" />
<polygon points="262.80 , 470.93 295.65 , 445.66 328.50 , 470.93 328.50 , 494.43 295.65 , 517.93 262.80 , 494.43 " style="stroke-width:1;stroke:#000000;fill:#56B4E9;stroke-opacity:1.000000;fill-opacity:1.000000" />
<polygon points="328.50 , 470.93 361.35 , 445.66 394.20 , 470.93 394.20 , 494.43 361.35 , 517.93 328.50 , 494.43 " style="stroke-width:1;stroke:#000000;fill:#000000;stroke-opacity:1.000000;fill-opacity:1.000000" />
<polygon points="394.20 , 470.93 427.05 , 445.66 459.90 , 470.93 459.90 , 494.43 427.05 , 517.93 394.20 , 494.43 " style="stroke-width:1;stroke:#000000;fill:#D55E00;stroke-opacity:1.000000;fill-opacity:1.000000" />
<polygon points="459.90 , 470.93 492.75 , 445.66 525.60 , 470.93 525.60 , 494.43 492.75 , 517.93 459.90 , 494.43 " style="stroke-width:1;stroke:#000000;fill:#D55E00;stroke-opacity:1.000000;fill-opacity:1.000000" />
<polygon points="525.60 , 470.93 558.45 , 445.66 591.30 , 470.93 591.30 , 494.43 558.45 , 517.93 525.60 , 494.43 " style="stroke-width:1;stroke:#000000;fill:#D55E00;stroke-opacity:1.000000;fill-opacity:1.000000" />
<polygon points="591.30 , 470.93 624.15 , 445.66 657.00 , 470.93 657.00 , 494.43 624.15 , 517.93 591.30 , 494.43 " style="stroke-width:1;stroke:#000000;fill:#D55E00;stroke-opacity:1.000000;fill-opacity:1.000000" />
<polygon points="164.25 , 519.11 197.10 , 493.84 229.95 , 519.11 229.95 , 542.61 197.10 , 566.12 164.25 , 542.61 " style="stroke-width:1;stroke:#000000;fill:#56B4E9;stroke-opacity:1.000000;fill-opacity:1.000000" />
<polygon points="229.95 , 519.11 262.80 , 493.84 295.65 , 519.11 295.65 , 542.61 262.80 , 566.12 229.95 , 542.61 " style="stroke-width:1;stroke:#000000;fill:#56B4E9;stroke-opacity:1.000000;fill-opacity:1.000000" />
<polygon points="295.65 , 519.11 328.50 , 493.84 361.35 , 519.11 361.35 , 542.61 328.50 , 566.12 295.65 , 542.61 " style="stroke-width:1;stroke:#000000;fill:#56B4E9;stroke-opacity:1.000000;fill-opacity:1.000000" />
<polygon points="361.35 , 519.11 394.20 , 493.84 427.05 , 519.11 427.05 , 542.61 394.20 , 566.12 361.35 , 542.61 " style="stroke-width:1;stroke:#000000;fill:#D55E00;stroke-opacity:1.000000;fill-opacity:1.000000" />
<polygon points="427.05 , 519.11 459.90 , 493.84 492.75 , 519.11 492.75 , 542.61 459.90 , 566.12 427.05 , 542.61 " style="stroke-width:1;stroke:#000000;fill:#D55E00;stroke-opacity:1.000000;fill-opacity:1.000000" />
<polygon points="492.75 , 519.11 525.60 , 493.84 558.45 , 519.11 558.45 , 542.61 525.60 , 566.12 492.75 , 542.61 " style="stroke-width:1;stroke:#000000;fill:#D55E00;stroke-opacity:1.000000;fill-opacity:1.000000" />
</svg>
